<svg xmlns="http://www.w3.org/2000/svg" viewBox="0 0 189.99 50.8"><g id="Calque_2" data-name="Calque 2"><g id="Calque_1-2" data-name="Calque 1"><path d="M190,24.28v2a30.21,30.21,0,0,1-.27,4.09,21.92,21.92,0,0,1-1.19,4.52,21.56,21.56,0,0,1-2.39,4.69A20.3,20.3,0,0,1,182,43.84a26.2,26.2,0,0,1-6.19,3.63A40.87,40.87,0,0,1,167,49.88a67.66,67.66,0,0,1-11.7.92H34.72A68.26,68.26,0,0,1,23,49.88a40.69,40.69,0,0,1-8.81-2.41A26.27,26.27,0,0,1,8,43.84a21.3,21.3,0,0,1-4.17-4.28,19.93,19.93,0,0,1-2.39-4.69A22.89,22.89,0,0,1,.27,30.35,30.21,30.21,0,0,1,0,26.26v-2a30,30,0,0,1,.27-4.12,23,23,0,0,1,1.15-4.49A19.27,19.27,0,0,1,3.81,11,20.67,20.67,0,0,1,8,6.8a25.17,25.17,0,0,1,6.2-3.57A42.24,42.24,0,0,1,23,.89,71.58,71.58,0,0,1,34.72,0H155.33A70.17,70.17,0,0,1,167,.89a42.27,42.27,0,0,1,8.78,2.34A25.17,25.17,0,0,1,182,6.8,20.67,20.67,0,0,1,186.11,11a20.3,20.3,0,0,1,2.42,4.62,21.3,21.3,0,0,1,1.19,4.48A30.83,30.83,0,0,1,190,24.28Zm-16.17.46a12.74,12.74,0,0,0-.47-3.49,10.8,10.8,0,0,0-1.78-3.44,11.84,11.84,0,0,0-3.45-3,20.16,20.16,0,0,0-5.77-2.08,37.22,37.22,0,0,0-7.56-.82H36.11q-19.93,0-19.94,12.86v.79A12,12,0,0,0,17,30a13.33,13.33,0,0,0,2.81,4.22A13.81,13.81,0,0,0,26,37.61a35.9,35.9,0,0,0,10.14,1.25H154.78a34.61,34.61,0,0,0,9.13-1.22,14.19,14.19,0,0,0,6.2-3.3A12.52,12.52,0,0,0,173,30.15a12.17,12.17,0,0,0,.83-4.48Z" fill="#fff"/></g></g></svg>