<svg xmlns="http://www.w3.org/2000/svg" viewBox="0 0 644.59 50.83"><g id="Calque_2" data-name="Calque 2"><g id="Calque_1-2" data-name="Calque 1"><path d="M19.2.44l35.07,31.7V.44h17V50.83h-17L17,17.44V50.83H0V.44Z" fill="#0885cc"/><path d="M137.94.26V11.73h-41V19.2h40V30.74h-40V39h41.74V50.76H79.92V.26Z" fill="#0885cc"/><path d="M166.33,12.36H142.7V.44h64.68V12.36h-23.7V50.83H166.33Z" fill="#0885cc"/><path d="M230.52,50.18,208.22.44h18.51l14,34.23,9.83-25.92h21.93l10.8,24.92L297,.44h16.7L291.75,50.18H274.62L263.06,20.69h-2.87L249.25,50.18Z" fill="#0885cc"/><path d="M505.92,24.28v2a30.21,30.21,0,0,1-.27,4.09,21.3,21.3,0,0,1-1.19,4.52,21.31,21.31,0,0,1-2.38,4.69,20.38,20.38,0,0,1-4.15,4.28,26.2,26.2,0,0,1-6.19,3.63A40.7,40.7,0,0,1,483,49.88a67.57,67.57,0,0,1-11.7.92H350.65a68.06,68.06,0,0,1-11.72-.92,40.63,40.63,0,0,1-8.82-2.41,26.2,26.2,0,0,1-6.19-3.63,20.86,20.86,0,0,1-4.18-4.28,19.34,19.34,0,0,1-2.38-4.69,23,23,0,0,1-1.16-4.52,30.21,30.21,0,0,1-.27-4.09v-2a30,30,0,0,1,.27-4.12,23.11,23.11,0,0,1,1.16-4.49A18.9,18.9,0,0,1,319.74,11a21.21,21.21,0,0,1,4.14-4.22,25.35,25.35,0,0,1,6.2-3.57A42.18,42.18,0,0,1,338.93.89,71.36,71.36,0,0,1,350.65,0H471.26a70.3,70.3,0,0,1,11.67.89,42.45,42.45,0,0,1,8.78,2.34A25.1,25.1,0,0,1,497.9,6.8,20.67,20.67,0,0,1,502,11a19.91,19.91,0,0,1,2.42,4.62,20.71,20.71,0,0,1,1.19,4.48A30.83,30.83,0,0,1,505.92,24.28Zm-16.17.46a12.74,12.74,0,0,0-.46-3.49,10.84,10.84,0,0,0-1.79-3.44,11.72,11.72,0,0,0-3.45-3,20.08,20.08,0,0,0-5.76-2.08,37.32,37.32,0,0,0-7.57-.82H352.05q-19.95,0-19.95,12.86v.79a12.22,12.22,0,0,0,.83,4.49,13.34,13.34,0,0,0,2.82,4.23,13.85,13.85,0,0,0,6.16,3.36,35.8,35.8,0,0,0,10.14,1.25H470.72a34.67,34.67,0,0,0,9.13-1.22,14.15,14.15,0,0,0,6.19-3.3,12.52,12.52,0,0,0,2.88-4.19,12.17,12.17,0,0,0,.83-4.48Z" fill="#0885cc"/><path d="M574.38,37.15V50.8H558.72V41.94q0-4.59-2.34-6.66c-1.56-1.38-4.24-2.06-8-2.06H528V50.8H512.42V1.24h40.15q21.6,0,21.61,12.85v.8q0,7.86-9.24,10.86a14.48,14.48,0,0,1,6.83,4A10.46,10.46,0,0,1,574.38,37.15ZM557.92,17.29a4.35,4.35,0,0,0-1.54-3.46,7.13,7.13,0,0,0-4.75-1.34H528v9.73h23.62a7.13,7.13,0,0,0,4.75-1.33,4.44,4.44,0,0,0,1.54-3.53Z" fill="#0885cc"/><path d="M603,32h-5.23V50.8H582V1h15.68V17h5.91L623.34,1h19.91L614.46,23.75,644.59,50.8H624.15Z" fill="#0885cc"/></g></g></svg>